<mxfile host="Electron" modified="2023-09-09T23:56:13.851Z" agent="Mozilla/5.0 (Macintosh; Intel Mac OS X 10_15_7) AppleWebKit/537.36 (KHTML, like Gecko) draw.io/21.6.8 Chrome/114.0.5735.289 Electron/25.5.0 Safari/537.36" etag="NMknv2A-IRAh075knTjz" version="21.6.8" type="device">
  <diagram name="第 1 页" id="TiJUKJAXZEzSA-mbGgC1">
    <mxGraphModel dx="3280" dy="2177" grid="1" gridSize="10" guides="1" tooltips="1" connect="1" arrows="1" fold="1" page="1" pageScale="1" pageWidth="827" pageHeight="1169" math="0" shadow="0">
      <root>
        <mxCell id="0" />
        <mxCell id="1" parent="0" />
        <mxCell id="I6P-6w5Jl3ohKBDjrvoA-120" value="&lt;font style=&quot;font-size: 30px;&quot;&gt;Diffusion Model&lt;/font&gt;" style="rounded=1;whiteSpace=wrap;html=1;fillColor=#fff2cc;strokeColor=#d6b656;verticalAlign=top;" vertex="1" parent="1">
          <mxGeometry x="760" y="479" width="880" height="440" as="geometry" />
        </mxCell>
        <mxCell id="I6P-6w5Jl3ohKBDjrvoA-115" value="&lt;font style=&quot;font-size: 18px;&quot;&gt;UNet&lt;/font&gt;" style="rounded=1;whiteSpace=wrap;html=1;fillColor=#f8cecc;strokeColor=#b85450;verticalAlign=top;" vertex="1" parent="1">
          <mxGeometry x="80" y="1059" width="2320" height="3500" as="geometry" />
        </mxCell>
        <mxCell id="I6P-6w5Jl3ohKBDjrvoA-29" value="" style="rounded=1;whiteSpace=wrap;html=1;fillColor=#e1d5e7;strokeColor=#9673a6;" vertex="1" parent="1">
          <mxGeometry x="1680" y="1919" width="280" height="600" as="geometry" />
        </mxCell>
        <mxCell id="I6P-6w5Jl3ohKBDjrvoA-14" value="" style="rounded=1;whiteSpace=wrap;html=1;fillColor=#e1d5e7;strokeColor=#9673a6;" vertex="1" parent="1">
          <mxGeometry x="1520" y="2799" width="280" height="600" as="geometry" />
        </mxCell>
        <mxCell id="I6P-6w5Jl3ohKBDjrvoA-11" value="" style="rounded=1;whiteSpace=wrap;html=1;fillColor=#e1d5e7;strokeColor=#9673a6;" vertex="1" parent="1">
          <mxGeometry x="1360" y="3679" width="280" height="600" as="geometry" />
        </mxCell>
        <mxCell id="quXKRR0BP9QjiIbmumPN-170" value="" style="rounded=1;whiteSpace=wrap;html=1;fillColor=#dae8fc;strokeColor=#6c8ebf;" parent="1" vertex="1">
          <mxGeometry x="919" y="3679" width="280" height="600" as="geometry" />
        </mxCell>
        <mxCell id="quXKRR0BP9QjiIbmumPN-121" value="" style="rounded=1;whiteSpace=wrap;html=1;fillColor=#dae8fc;strokeColor=#6c8ebf;" parent="1" vertex="1">
          <mxGeometry x="760" y="2799" width="280" height="600" as="geometry" />
        </mxCell>
        <mxCell id="quXKRR0BP9QjiIbmumPN-120" value="" style="rounded=1;whiteSpace=wrap;html=1;fillColor=#dae8fc;strokeColor=#6c8ebf;" parent="1" vertex="1">
          <mxGeometry x="600" y="1919.6" width="280" height="600" as="geometry" />
        </mxCell>
        <mxCell id="quXKRR0BP9QjiIbmumPN-118" value="" style="rounded=1;whiteSpace=wrap;html=1;fillColor=#dae8fc;strokeColor=#6c8ebf;" parent="1" vertex="1">
          <mxGeometry x="440" y="1079" width="280" height="600" as="geometry" />
        </mxCell>
        <mxCell id="I6P-6w5Jl3ohKBDjrvoA-122" style="edgeStyle=orthogonalEdgeStyle;rounded=0;orthogonalLoop=1;jettySize=auto;html=1;exitX=1;exitY=0.5;exitDx=0;exitDy=0;" edge="1" parent="1" source="quXKRR0BP9QjiIbmumPN-39" target="I6P-6w5Jl3ohKBDjrvoA-121">
          <mxGeometry relative="1" as="geometry" />
        </mxCell>
        <mxCell id="quXKRR0BP9QjiIbmumPN-39" value="&lt;font style=&quot;font-size: 18px;&quot;&gt;Time Embedding&lt;/font&gt;" style="rounded=1;whiteSpace=wrap;html=1;verticalAlign=top;fillColor=#d5e8d4;strokeColor=#82b366;" parent="1" vertex="1">
          <mxGeometry x="800" y="519" width="280" height="280" as="geometry" />
        </mxCell>
        <mxCell id="I6P-6w5Jl3ohKBDjrvoA-72" style="edgeStyle=orthogonalEdgeStyle;rounded=0;orthogonalLoop=1;jettySize=auto;html=1;exitX=0.5;exitY=1;exitDx=0;exitDy=0;entryX=0.5;entryY=0;entryDx=0;entryDy=0;" edge="1" parent="1" source="quXKRR0BP9QjiIbmumPN-1" target="quXKRR0BP9QjiIbmumPN-2">
          <mxGeometry relative="1" as="geometry" />
        </mxCell>
        <mxCell id="quXKRR0BP9QjiIbmumPN-1" value="SinusoidalPositionEmbeddings" style="rounded=0;whiteSpace=wrap;html=1;" parent="1" vertex="1">
          <mxGeometry x="840" y="559" width="200" height="40" as="geometry" />
        </mxCell>
        <mxCell id="I6P-6w5Jl3ohKBDjrvoA-73" style="edgeStyle=orthogonalEdgeStyle;rounded=0;orthogonalLoop=1;jettySize=auto;html=1;exitX=0.5;exitY=1;exitDx=0;exitDy=0;entryX=0.5;entryY=0;entryDx=0;entryDy=0;" edge="1" parent="1" source="quXKRR0BP9QjiIbmumPN-2" target="quXKRR0BP9QjiIbmumPN-3">
          <mxGeometry relative="1" as="geometry" />
        </mxCell>
        <mxCell id="quXKRR0BP9QjiIbmumPN-2" value="Linear(32, 32)" style="rounded=0;whiteSpace=wrap;html=1;" parent="1" vertex="1">
          <mxGeometry x="840" y="639" width="200" height="40" as="geometry" />
        </mxCell>
        <mxCell id="quXKRR0BP9QjiIbmumPN-3" value="ReLU" style="rounded=0;whiteSpace=wrap;html=1;" parent="1" vertex="1">
          <mxGeometry x="840" y="719" width="200" height="40" as="geometry" />
        </mxCell>
        <mxCell id="quXKRR0BP9QjiIbmumPN-43" style="edgeStyle=orthogonalEdgeStyle;rounded=0;orthogonalLoop=1;jettySize=auto;html=1;exitX=0.5;exitY=1;exitDx=0;exitDy=0;" parent="1" source="quXKRR0BP9QjiIbmumPN-6" target="quXKRR0BP9QjiIbmumPN-41" edge="1">
          <mxGeometry relative="1" as="geometry" />
        </mxCell>
        <mxCell id="quXKRR0BP9QjiIbmumPN-6" value="conv(64, 128)" style="rounded=0;whiteSpace=wrap;html=1;" parent="1" vertex="1">
          <mxGeometry x="480" y="1119" width="200" height="40" as="geometry" />
        </mxCell>
        <mxCell id="quXKRR0BP9QjiIbmumPN-49" style="edgeStyle=orthogonalEdgeStyle;rounded=0;orthogonalLoop=1;jettySize=auto;html=1;" parent="1" source="quXKRR0BP9QjiIbmumPN-8" target="quXKRR0BP9QjiIbmumPN-48" edge="1">
          <mxGeometry relative="1" as="geometry" />
        </mxCell>
        <mxCell id="quXKRR0BP9QjiIbmumPN-8" value="conv(128, 128)" style="rounded=0;whiteSpace=wrap;html=1;" parent="1" vertex="1">
          <mxGeometry x="480" y="1359" width="200" height="40" as="geometry" />
        </mxCell>
        <mxCell id="quXKRR0BP9QjiIbmumPN-75" style="edgeStyle=orthogonalEdgeStyle;rounded=0;orthogonalLoop=1;jettySize=auto;html=1;exitX=0.5;exitY=1;exitDx=0;exitDy=0;" parent="1" source="I6P-6w5Jl3ohKBDjrvoA-64" target="quXKRR0BP9QjiIbmumPN-59" edge="1">
          <mxGeometry relative="1" as="geometry" />
        </mxCell>
        <mxCell id="quXKRR0BP9QjiIbmumPN-9" value="conv(128, 128)" style="rounded=0;whiteSpace=wrap;html=1;" parent="1" vertex="1">
          <mxGeometry x="480" y="1599" width="200" height="40" as="geometry" />
        </mxCell>
        <mxCell id="quXKRR0BP9QjiIbmumPN-53" style="edgeStyle=orthogonalEdgeStyle;rounded=0;orthogonalLoop=1;jettySize=auto;html=1;exitX=0.5;exitY=1;exitDx=0;exitDy=0;" parent="1" source="quXKRR0BP9QjiIbmumPN-10" target="quXKRR0BP9QjiIbmumPN-8" edge="1">
          <mxGeometry relative="1" as="geometry" />
        </mxCell>
        <mxCell id="quXKRR0BP9QjiIbmumPN-10" value="Linear(32, 128)" style="rounded=0;whiteSpace=wrap;html=1;" parent="1" vertex="1">
          <mxGeometry x="200" y="1279" width="200" height="40" as="geometry" />
        </mxCell>
        <mxCell id="I6P-6w5Jl3ohKBDjrvoA-5" style="edgeStyle=orthogonalEdgeStyle;rounded=0;orthogonalLoop=1;jettySize=auto;html=1;exitX=0.5;exitY=0;exitDx=0;exitDy=0;" edge="1" parent="1" source="quXKRR0BP9QjiIbmumPN-23" target="I6P-6w5Jl3ohKBDjrvoA-1">
          <mxGeometry relative="1" as="geometry" />
        </mxCell>
        <mxCell id="quXKRR0BP9QjiIbmumPN-23" value="conv(2048, 512)" style="rounded=0;whiteSpace=wrap;html=1;" parent="1" vertex="1">
          <mxGeometry x="1401" y="4199" width="200" height="40" as="geometry" />
        </mxCell>
        <mxCell id="I6P-6w5Jl3ohKBDjrvoA-8" style="edgeStyle=orthogonalEdgeStyle;rounded=0;orthogonalLoop=1;jettySize=auto;html=1;exitX=0.5;exitY=0;exitDx=0;exitDy=0;" edge="1" parent="1" source="quXKRR0BP9QjiIbmumPN-24" target="I6P-6w5Jl3ohKBDjrvoA-3">
          <mxGeometry relative="1" as="geometry" />
        </mxCell>
        <mxCell id="quXKRR0BP9QjiIbmumPN-24" value="conv(512, 512)" style="rounded=0;whiteSpace=wrap;html=1;" parent="1" vertex="1">
          <mxGeometry x="1401" y="3959" width="200" height="40" as="geometry" />
        </mxCell>
        <mxCell id="I6P-6w5Jl3ohKBDjrvoA-82" style="edgeStyle=orthogonalEdgeStyle;rounded=0;orthogonalLoop=1;jettySize=auto;html=1;exitX=0.5;exitY=0;exitDx=0;exitDy=0;entryX=0.5;entryY=1;entryDx=0;entryDy=0;" edge="1" parent="1" source="quXKRR0BP9QjiIbmumPN-25" target="I6P-6w5Jl3ohKBDjrvoA-78">
          <mxGeometry relative="1" as="geometry" />
        </mxCell>
        <mxCell id="quXKRR0BP9QjiIbmumPN-25" value="ConvTranspose(512, 512)" style="rounded=0;whiteSpace=wrap;html=1;" parent="1" vertex="1">
          <mxGeometry x="1401" y="3719" width="200" height="40" as="geometry" />
        </mxCell>
        <mxCell id="quXKRR0BP9QjiIbmumPN-47" style="edgeStyle=orthogonalEdgeStyle;rounded=0;orthogonalLoop=1;jettySize=auto;html=1;exitX=0.5;exitY=1;exitDx=0;exitDy=0;" parent="1" source="quXKRR0BP9QjiIbmumPN-40" target="quXKRR0BP9QjiIbmumPN-8" edge="1">
          <mxGeometry relative="1" as="geometry" />
        </mxCell>
        <mxCell id="quXKRR0BP9QjiIbmumPN-40" value="BN(128)" style="rounded=0;whiteSpace=wrap;html=1;" parent="1" vertex="1">
          <mxGeometry x="480" y="1279" width="200" height="40" as="geometry" />
        </mxCell>
        <mxCell id="quXKRR0BP9QjiIbmumPN-44" style="edgeStyle=orthogonalEdgeStyle;rounded=0;orthogonalLoop=1;jettySize=auto;html=1;exitX=0.5;exitY=1;exitDx=0;exitDy=0;entryX=0.5;entryY=0;entryDx=0;entryDy=0;" parent="1" source="quXKRR0BP9QjiIbmumPN-41" target="quXKRR0BP9QjiIbmumPN-40" edge="1">
          <mxGeometry relative="1" as="geometry" />
        </mxCell>
        <mxCell id="quXKRR0BP9QjiIbmumPN-41" value="ReLU" style="rounded=0;whiteSpace=wrap;html=1;" parent="1" vertex="1">
          <mxGeometry x="480" y="1199" width="200" height="40" as="geometry" />
        </mxCell>
        <mxCell id="quXKRR0BP9QjiIbmumPN-51" style="edgeStyle=orthogonalEdgeStyle;rounded=0;orthogonalLoop=1;jettySize=auto;html=1;exitX=0.5;exitY=1;exitDx=0;exitDy=0;" parent="1" source="quXKRR0BP9QjiIbmumPN-48" target="quXKRR0BP9QjiIbmumPN-50" edge="1">
          <mxGeometry relative="1" as="geometry" />
        </mxCell>
        <mxCell id="quXKRR0BP9QjiIbmumPN-48" value="ReLU" style="rounded=0;whiteSpace=wrap;html=1;" parent="1" vertex="1">
          <mxGeometry x="480" y="1439" width="200" height="40" as="geometry" />
        </mxCell>
        <mxCell id="quXKRR0BP9QjiIbmumPN-52" style="edgeStyle=orthogonalEdgeStyle;rounded=0;orthogonalLoop=1;jettySize=auto;html=1;exitX=0.5;exitY=1;exitDx=0;exitDy=0;" parent="1" source="quXKRR0BP9QjiIbmumPN-50" target="quXKRR0BP9QjiIbmumPN-9" edge="1">
          <mxGeometry relative="1" as="geometry" />
        </mxCell>
        <mxCell id="quXKRR0BP9QjiIbmumPN-50" value="BN(128)" style="rounded=0;whiteSpace=wrap;html=1;" parent="1" vertex="1">
          <mxGeometry x="480" y="1519" width="200" height="40" as="geometry" />
        </mxCell>
        <mxCell id="quXKRR0BP9QjiIbmumPN-55" style="edgeStyle=orthogonalEdgeStyle;rounded=0;orthogonalLoop=1;jettySize=auto;html=1;exitX=0.5;exitY=1;exitDx=0;exitDy=0;" parent="1" source="quXKRR0BP9QjiIbmumPN-54" target="quXKRR0BP9QjiIbmumPN-10" edge="1">
          <mxGeometry relative="1" as="geometry" />
        </mxCell>
        <mxCell id="quXKRR0BP9QjiIbmumPN-54" value="t" style="rounded=0;whiteSpace=wrap;html=1;" parent="1" vertex="1">
          <mxGeometry x="200" y="1199" width="200" height="40" as="geometry" />
        </mxCell>
        <mxCell id="quXKRR0BP9QjiIbmumPN-58" style="edgeStyle=orthogonalEdgeStyle;rounded=0;orthogonalLoop=1;jettySize=auto;html=1;exitX=0.5;exitY=1;exitDx=0;exitDy=0;" parent="1" source="quXKRR0BP9QjiIbmumPN-59" target="quXKRR0BP9QjiIbmumPN-68" edge="1">
          <mxGeometry relative="1" as="geometry" />
        </mxCell>
        <mxCell id="quXKRR0BP9QjiIbmumPN-59" value="conv(128, 256)" style="rounded=0;whiteSpace=wrap;html=1;" parent="1" vertex="1">
          <mxGeometry x="640" y="1958.6" width="200" height="40" as="geometry" />
        </mxCell>
        <mxCell id="quXKRR0BP9QjiIbmumPN-60" style="edgeStyle=orthogonalEdgeStyle;rounded=0;orthogonalLoop=1;jettySize=auto;html=1;exitX=0.5;exitY=1;exitDx=0;exitDy=0;" parent="1" source="quXKRR0BP9QjiIbmumPN-61" target="quXKRR0BP9QjiIbmumPN-70" edge="1">
          <mxGeometry relative="1" as="geometry" />
        </mxCell>
        <mxCell id="quXKRR0BP9QjiIbmumPN-61" value="conv(256, 256)" style="rounded=0;whiteSpace=wrap;html=1;" parent="1" vertex="1">
          <mxGeometry x="640" y="2198.6" width="200" height="40" as="geometry" />
        </mxCell>
        <mxCell id="quXKRR0BP9QjiIbmumPN-119" style="edgeStyle=orthogonalEdgeStyle;rounded=0;orthogonalLoop=1;jettySize=auto;html=1;exitX=0.5;exitY=1;exitDx=0;exitDy=0;" parent="1" source="I6P-6w5Jl3ohKBDjrvoA-61" target="quXKRR0BP9QjiIbmumPN-77" edge="1">
          <mxGeometry relative="1" as="geometry" />
        </mxCell>
        <mxCell id="quXKRR0BP9QjiIbmumPN-62" value="conv(256, 256)" style="rounded=0;whiteSpace=wrap;html=1;" parent="1" vertex="1">
          <mxGeometry x="640" y="2438.6" width="200" height="40" as="geometry" />
        </mxCell>
        <mxCell id="quXKRR0BP9QjiIbmumPN-63" style="edgeStyle=orthogonalEdgeStyle;rounded=0;orthogonalLoop=1;jettySize=auto;html=1;exitX=0.5;exitY=1;exitDx=0;exitDy=0;" parent="1" source="quXKRR0BP9QjiIbmumPN-64" target="quXKRR0BP9QjiIbmumPN-61" edge="1">
          <mxGeometry relative="1" as="geometry" />
        </mxCell>
        <mxCell id="quXKRR0BP9QjiIbmumPN-64" value="Linear(32, 256)" style="rounded=0;whiteSpace=wrap;html=1;" parent="1" vertex="1">
          <mxGeometry x="200" y="2118.6" width="200" height="40" as="geometry" />
        </mxCell>
        <mxCell id="I6P-6w5Jl3ohKBDjrvoA-71" style="edgeStyle=orthogonalEdgeStyle;rounded=0;orthogonalLoop=1;jettySize=auto;html=1;exitX=0.5;exitY=1;exitDx=0;exitDy=0;entryX=0.5;entryY=0;entryDx=0;entryDy=0;" edge="1" parent="1" source="quXKRR0BP9QjiIbmumPN-66" target="quXKRR0BP9QjiIbmumPN-61">
          <mxGeometry relative="1" as="geometry" />
        </mxCell>
        <mxCell id="quXKRR0BP9QjiIbmumPN-66" value="BN(256)" style="rounded=0;whiteSpace=wrap;html=1;" parent="1" vertex="1">
          <mxGeometry x="640" y="2118.6" width="200" height="40" as="geometry" />
        </mxCell>
        <mxCell id="quXKRR0BP9QjiIbmumPN-67" style="edgeStyle=orthogonalEdgeStyle;rounded=0;orthogonalLoop=1;jettySize=auto;html=1;exitX=0.5;exitY=1;exitDx=0;exitDy=0;entryX=0.5;entryY=0;entryDx=0;entryDy=0;" parent="1" source="quXKRR0BP9QjiIbmumPN-68" target="quXKRR0BP9QjiIbmumPN-66" edge="1">
          <mxGeometry relative="1" as="geometry" />
        </mxCell>
        <mxCell id="quXKRR0BP9QjiIbmumPN-68" value="ReLU" style="rounded=0;whiteSpace=wrap;html=1;" parent="1" vertex="1">
          <mxGeometry x="640" y="2038.6" width="200" height="40" as="geometry" />
        </mxCell>
        <mxCell id="quXKRR0BP9QjiIbmumPN-69" style="edgeStyle=orthogonalEdgeStyle;rounded=0;orthogonalLoop=1;jettySize=auto;html=1;exitX=0.5;exitY=1;exitDx=0;exitDy=0;" parent="1" source="quXKRR0BP9QjiIbmumPN-70" target="quXKRR0BP9QjiIbmumPN-72" edge="1">
          <mxGeometry relative="1" as="geometry" />
        </mxCell>
        <mxCell id="quXKRR0BP9QjiIbmumPN-70" value="ReLU" style="rounded=0;whiteSpace=wrap;html=1;" parent="1" vertex="1">
          <mxGeometry x="640" y="2278.6" width="200" height="40" as="geometry" />
        </mxCell>
        <mxCell id="quXKRR0BP9QjiIbmumPN-71" style="edgeStyle=orthogonalEdgeStyle;rounded=0;orthogonalLoop=1;jettySize=auto;html=1;exitX=0.5;exitY=1;exitDx=0;exitDy=0;" parent="1" source="quXKRR0BP9QjiIbmumPN-72" target="quXKRR0BP9QjiIbmumPN-62" edge="1">
          <mxGeometry relative="1" as="geometry" />
        </mxCell>
        <mxCell id="quXKRR0BP9QjiIbmumPN-72" value="BN(256)" style="rounded=0;whiteSpace=wrap;html=1;" parent="1" vertex="1">
          <mxGeometry x="640" y="2358.6" width="200" height="40" as="geometry" />
        </mxCell>
        <mxCell id="quXKRR0BP9QjiIbmumPN-73" style="edgeStyle=orthogonalEdgeStyle;rounded=0;orthogonalLoop=1;jettySize=auto;html=1;exitX=0.5;exitY=1;exitDx=0;exitDy=0;" parent="1" source="quXKRR0BP9QjiIbmumPN-74" target="quXKRR0BP9QjiIbmumPN-64" edge="1">
          <mxGeometry relative="1" as="geometry" />
        </mxCell>
        <mxCell id="quXKRR0BP9QjiIbmumPN-74" value="t" style="rounded=0;whiteSpace=wrap;html=1;" parent="1" vertex="1">
          <mxGeometry x="200" y="2038.6" width="200" height="40" as="geometry" />
        </mxCell>
        <mxCell id="quXKRR0BP9QjiIbmumPN-76" style="edgeStyle=orthogonalEdgeStyle;rounded=0;orthogonalLoop=1;jettySize=auto;html=1;exitX=0.5;exitY=1;exitDx=0;exitDy=0;" parent="1" source="quXKRR0BP9QjiIbmumPN-77" target="quXKRR0BP9QjiIbmumPN-86" edge="1">
          <mxGeometry relative="1" as="geometry" />
        </mxCell>
        <mxCell id="quXKRR0BP9QjiIbmumPN-77" value="conv(256, 512)" style="rounded=0;whiteSpace=wrap;html=1;" parent="1" vertex="1">
          <mxGeometry x="800" y="2839" width="200" height="40" as="geometry" />
        </mxCell>
        <mxCell id="quXKRR0BP9QjiIbmumPN-78" style="edgeStyle=orthogonalEdgeStyle;rounded=0;orthogonalLoop=1;jettySize=auto;html=1;exitX=0.5;exitY=1;exitDx=0;exitDy=0;" parent="1" source="quXKRR0BP9QjiIbmumPN-79" target="quXKRR0BP9QjiIbmumPN-88" edge="1">
          <mxGeometry relative="1" as="geometry" />
        </mxCell>
        <mxCell id="quXKRR0BP9QjiIbmumPN-79" value="conv(512, 512)" style="rounded=0;whiteSpace=wrap;html=1;" parent="1" vertex="1">
          <mxGeometry x="800" y="3079" width="200" height="40" as="geometry" />
        </mxCell>
        <mxCell id="I6P-6w5Jl3ohKBDjrvoA-67" style="edgeStyle=orthogonalEdgeStyle;rounded=0;orthogonalLoop=1;jettySize=auto;html=1;exitX=0.5;exitY=1;exitDx=0;exitDy=0;entryX=0.5;entryY=0;entryDx=0;entryDy=0;" edge="1" parent="1" source="I6P-6w5Jl3ohKBDjrvoA-66" target="quXKRR0BP9QjiIbmumPN-96">
          <mxGeometry relative="1" as="geometry" />
        </mxCell>
        <mxCell id="quXKRR0BP9QjiIbmumPN-80" value="conv(512, 512)" style="rounded=0;whiteSpace=wrap;html=1;" parent="1" vertex="1">
          <mxGeometry x="800" y="3319" width="200" height="40" as="geometry" />
        </mxCell>
        <mxCell id="quXKRR0BP9QjiIbmumPN-81" style="edgeStyle=orthogonalEdgeStyle;rounded=0;orthogonalLoop=1;jettySize=auto;html=1;exitX=0.5;exitY=1;exitDx=0;exitDy=0;" parent="1" source="quXKRR0BP9QjiIbmumPN-82" target="quXKRR0BP9QjiIbmumPN-79" edge="1">
          <mxGeometry relative="1" as="geometry" />
        </mxCell>
        <mxCell id="quXKRR0BP9QjiIbmumPN-82" value="Linear(32, 512)" style="rounded=0;whiteSpace=wrap;html=1;" parent="1" vertex="1">
          <mxGeometry x="200" y="2999" width="200" height="40" as="geometry" />
        </mxCell>
        <mxCell id="quXKRR0BP9QjiIbmumPN-115" style="edgeStyle=orthogonalEdgeStyle;rounded=0;orthogonalLoop=1;jettySize=auto;html=1;exitX=0.5;exitY=1;exitDx=0;exitDy=0;entryX=0.5;entryY=0;entryDx=0;entryDy=0;" parent="1" source="quXKRR0BP9QjiIbmumPN-84" target="quXKRR0BP9QjiIbmumPN-79" edge="1">
          <mxGeometry relative="1" as="geometry" />
        </mxCell>
        <mxCell id="quXKRR0BP9QjiIbmumPN-84" value="BN(512)" style="rounded=0;whiteSpace=wrap;html=1;" parent="1" vertex="1">
          <mxGeometry x="800" y="2999" width="200" height="40" as="geometry" />
        </mxCell>
        <mxCell id="quXKRR0BP9QjiIbmumPN-85" style="edgeStyle=orthogonalEdgeStyle;rounded=0;orthogonalLoop=1;jettySize=auto;html=1;exitX=0.5;exitY=1;exitDx=0;exitDy=0;entryX=0.5;entryY=0;entryDx=0;entryDy=0;" parent="1" source="quXKRR0BP9QjiIbmumPN-86" target="quXKRR0BP9QjiIbmumPN-84" edge="1">
          <mxGeometry relative="1" as="geometry" />
        </mxCell>
        <mxCell id="quXKRR0BP9QjiIbmumPN-86" value="ReLU" style="rounded=0;whiteSpace=wrap;html=1;" parent="1" vertex="1">
          <mxGeometry x="800" y="2919" width="200" height="40" as="geometry" />
        </mxCell>
        <mxCell id="quXKRR0BP9QjiIbmumPN-87" style="edgeStyle=orthogonalEdgeStyle;rounded=0;orthogonalLoop=1;jettySize=auto;html=1;exitX=0.5;exitY=1;exitDx=0;exitDy=0;" parent="1" source="quXKRR0BP9QjiIbmumPN-88" target="quXKRR0BP9QjiIbmumPN-90" edge="1">
          <mxGeometry relative="1" as="geometry" />
        </mxCell>
        <mxCell id="quXKRR0BP9QjiIbmumPN-88" value="ReLU" style="rounded=0;whiteSpace=wrap;html=1;" parent="1" vertex="1">
          <mxGeometry x="800" y="3159" width="200" height="40" as="geometry" />
        </mxCell>
        <mxCell id="quXKRR0BP9QjiIbmumPN-89" style="edgeStyle=orthogonalEdgeStyle;rounded=0;orthogonalLoop=1;jettySize=auto;html=1;exitX=0.5;exitY=1;exitDx=0;exitDy=0;" parent="1" source="quXKRR0BP9QjiIbmumPN-90" target="quXKRR0BP9QjiIbmumPN-80" edge="1">
          <mxGeometry relative="1" as="geometry" />
        </mxCell>
        <mxCell id="quXKRR0BP9QjiIbmumPN-90" value="BN(512)" style="rounded=0;whiteSpace=wrap;html=1;" parent="1" vertex="1">
          <mxGeometry x="800" y="3239" width="200" height="40" as="geometry" />
        </mxCell>
        <mxCell id="quXKRR0BP9QjiIbmumPN-91" style="edgeStyle=orthogonalEdgeStyle;rounded=0;orthogonalLoop=1;jettySize=auto;html=1;exitX=0.5;exitY=1;exitDx=0;exitDy=0;" parent="1" source="quXKRR0BP9QjiIbmumPN-92" target="quXKRR0BP9QjiIbmumPN-82" edge="1">
          <mxGeometry relative="1" as="geometry" />
        </mxCell>
        <mxCell id="quXKRR0BP9QjiIbmumPN-92" value="t" style="rounded=0;whiteSpace=wrap;html=1;" parent="1" vertex="1">
          <mxGeometry x="200" y="2919" width="200" height="40" as="geometry" />
        </mxCell>
        <mxCell id="quXKRR0BP9QjiIbmumPN-95" style="edgeStyle=orthogonalEdgeStyle;rounded=0;orthogonalLoop=1;jettySize=auto;html=1;exitX=0.5;exitY=1;exitDx=0;exitDy=0;" parent="1" source="quXKRR0BP9QjiIbmumPN-96" target="quXKRR0BP9QjiIbmumPN-105" edge="1">
          <mxGeometry relative="1" as="geometry" />
        </mxCell>
        <mxCell id="quXKRR0BP9QjiIbmumPN-96" value="conv(512, 1024)" style="rounded=0;whiteSpace=wrap;html=1;" parent="1" vertex="1">
          <mxGeometry x="959" y="3719" width="200" height="40" as="geometry" />
        </mxCell>
        <mxCell id="quXKRR0BP9QjiIbmumPN-97" style="edgeStyle=orthogonalEdgeStyle;rounded=0;orthogonalLoop=1;jettySize=auto;html=1;exitX=0.5;exitY=1;exitDx=0;exitDy=0;" parent="1" source="quXKRR0BP9QjiIbmumPN-98" target="quXKRR0BP9QjiIbmumPN-107" edge="1">
          <mxGeometry relative="1" as="geometry" />
        </mxCell>
        <mxCell id="quXKRR0BP9QjiIbmumPN-98" value="conv(1024, 1024)" style="rounded=0;whiteSpace=wrap;html=1;" parent="1" vertex="1">
          <mxGeometry x="959" y="3959" width="200" height="40" as="geometry" />
        </mxCell>
        <mxCell id="I6P-6w5Jl3ohKBDjrvoA-83" style="edgeStyle=orthogonalEdgeStyle;rounded=0;orthogonalLoop=1;jettySize=auto;html=1;exitX=0.5;exitY=1;exitDx=0;exitDy=0;" edge="1" parent="1" source="quXKRR0BP9QjiIbmumPN-99" target="I6P-6w5Jl3ohKBDjrvoA-70">
          <mxGeometry relative="1" as="geometry" />
        </mxCell>
        <mxCell id="quXKRR0BP9QjiIbmumPN-99" value="conv(1024, 1024)" style="rounded=0;whiteSpace=wrap;html=1;" parent="1" vertex="1">
          <mxGeometry x="959" y="4199" width="200" height="40" as="geometry" />
        </mxCell>
        <mxCell id="quXKRR0BP9QjiIbmumPN-123" style="edgeStyle=orthogonalEdgeStyle;rounded=0;orthogonalLoop=1;jettySize=auto;html=1;exitX=0.5;exitY=1;exitDx=0;exitDy=0;entryX=0.5;entryY=0;entryDx=0;entryDy=0;" parent="1" source="quXKRR0BP9QjiIbmumPN-101" target="quXKRR0BP9QjiIbmumPN-98" edge="1">
          <mxGeometry relative="1" as="geometry" />
        </mxCell>
        <mxCell id="quXKRR0BP9QjiIbmumPN-101" value="Linear(32, 1024)" style="rounded=0;whiteSpace=wrap;html=1;" parent="1" vertex="1">
          <mxGeometry x="200" y="3879" width="200" height="40" as="geometry" />
        </mxCell>
        <mxCell id="quXKRR0BP9QjiIbmumPN-117" style="edgeStyle=orthogonalEdgeStyle;rounded=0;orthogonalLoop=1;jettySize=auto;html=1;exitX=0.5;exitY=1;exitDx=0;exitDy=0;entryX=0.5;entryY=0;entryDx=0;entryDy=0;" parent="1" source="quXKRR0BP9QjiIbmumPN-103" target="quXKRR0BP9QjiIbmumPN-98" edge="1">
          <mxGeometry relative="1" as="geometry" />
        </mxCell>
        <mxCell id="quXKRR0BP9QjiIbmumPN-103" value="BN(1024)" style="rounded=0;whiteSpace=wrap;html=1;" parent="1" vertex="1">
          <mxGeometry x="959" y="3879" width="200" height="40" as="geometry" />
        </mxCell>
        <mxCell id="quXKRR0BP9QjiIbmumPN-104" style="edgeStyle=orthogonalEdgeStyle;rounded=0;orthogonalLoop=1;jettySize=auto;html=1;exitX=0.5;exitY=1;exitDx=0;exitDy=0;entryX=0.5;entryY=0;entryDx=0;entryDy=0;" parent="1" source="quXKRR0BP9QjiIbmumPN-105" target="quXKRR0BP9QjiIbmumPN-103" edge="1">
          <mxGeometry relative="1" as="geometry" />
        </mxCell>
        <mxCell id="quXKRR0BP9QjiIbmumPN-105" value="ReLU" style="rounded=0;whiteSpace=wrap;html=1;" parent="1" vertex="1">
          <mxGeometry x="959" y="3799" width="200" height="40" as="geometry" />
        </mxCell>
        <mxCell id="quXKRR0BP9QjiIbmumPN-106" style="edgeStyle=orthogonalEdgeStyle;rounded=0;orthogonalLoop=1;jettySize=auto;html=1;exitX=0.5;exitY=1;exitDx=0;exitDy=0;" parent="1" source="quXKRR0BP9QjiIbmumPN-107" target="quXKRR0BP9QjiIbmumPN-109" edge="1">
          <mxGeometry relative="1" as="geometry" />
        </mxCell>
        <mxCell id="quXKRR0BP9QjiIbmumPN-107" value="ReLU" style="rounded=0;whiteSpace=wrap;html=1;" parent="1" vertex="1">
          <mxGeometry x="959" y="4039" width="200" height="40" as="geometry" />
        </mxCell>
        <mxCell id="quXKRR0BP9QjiIbmumPN-108" style="edgeStyle=orthogonalEdgeStyle;rounded=0;orthogonalLoop=1;jettySize=auto;html=1;exitX=0.5;exitY=1;exitDx=0;exitDy=0;" parent="1" source="quXKRR0BP9QjiIbmumPN-109" target="quXKRR0BP9QjiIbmumPN-99" edge="1">
          <mxGeometry relative="1" as="geometry" />
        </mxCell>
        <mxCell id="quXKRR0BP9QjiIbmumPN-109" value="BN(1024)" style="rounded=0;whiteSpace=wrap;html=1;" parent="1" vertex="1">
          <mxGeometry x="959" y="4119" width="200" height="40" as="geometry" />
        </mxCell>
        <mxCell id="quXKRR0BP9QjiIbmumPN-110" style="edgeStyle=orthogonalEdgeStyle;rounded=0;orthogonalLoop=1;jettySize=auto;html=1;exitX=0.5;exitY=1;exitDx=0;exitDy=0;" parent="1" source="quXKRR0BP9QjiIbmumPN-111" target="quXKRR0BP9QjiIbmumPN-101" edge="1">
          <mxGeometry relative="1" as="geometry" />
        </mxCell>
        <mxCell id="quXKRR0BP9QjiIbmumPN-111" value="t" style="rounded=0;whiteSpace=wrap;html=1;" parent="1" vertex="1">
          <mxGeometry x="200" y="3799" width="200" height="40" as="geometry" />
        </mxCell>
        <mxCell id="I6P-6w5Jl3ohKBDjrvoA-99" style="edgeStyle=orthogonalEdgeStyle;rounded=0;orthogonalLoop=1;jettySize=auto;html=1;exitX=0.5;exitY=0;exitDx=0;exitDy=0;entryX=0.5;entryY=1;entryDx=0;entryDy=0;" edge="1" parent="1" source="quXKRR0BP9QjiIbmumPN-169" target="quXKRR0BP9QjiIbmumPN-24">
          <mxGeometry relative="1" as="geometry" />
        </mxCell>
        <mxCell id="quXKRR0BP9QjiIbmumPN-169" value="Linear(32, 512)" style="rounded=0;whiteSpace=wrap;html=1;" parent="1" vertex="1">
          <mxGeometry x="2160" y="4039" width="200" height="40" as="geometry" />
        </mxCell>
        <mxCell id="I6P-6w5Jl3ohKBDjrvoA-6" style="edgeStyle=orthogonalEdgeStyle;rounded=0;orthogonalLoop=1;jettySize=auto;html=1;exitX=0.5;exitY=0;exitDx=0;exitDy=0;entryX=0.5;entryY=1;entryDx=0;entryDy=0;" edge="1" parent="1" source="I6P-6w5Jl3ohKBDjrvoA-1" target="I6P-6w5Jl3ohKBDjrvoA-2">
          <mxGeometry relative="1" as="geometry" />
        </mxCell>
        <mxCell id="I6P-6w5Jl3ohKBDjrvoA-1" value="ReLU" style="rounded=0;whiteSpace=wrap;html=1;" vertex="1" parent="1">
          <mxGeometry x="1401" y="4119" width="200" height="40" as="geometry" />
        </mxCell>
        <mxCell id="I6P-6w5Jl3ohKBDjrvoA-7" style="edgeStyle=orthogonalEdgeStyle;rounded=0;orthogonalLoop=1;jettySize=auto;html=1;exitX=0.5;exitY=0;exitDx=0;exitDy=0;" edge="1" parent="1" source="I6P-6w5Jl3ohKBDjrvoA-2" target="quXKRR0BP9QjiIbmumPN-24">
          <mxGeometry relative="1" as="geometry" />
        </mxCell>
        <mxCell id="I6P-6w5Jl3ohKBDjrvoA-2" value="BN(512)" style="rounded=0;whiteSpace=wrap;html=1;" vertex="1" parent="1">
          <mxGeometry x="1401" y="4039" width="200" height="40" as="geometry" />
        </mxCell>
        <mxCell id="I6P-6w5Jl3ohKBDjrvoA-9" style="edgeStyle=orthogonalEdgeStyle;rounded=0;orthogonalLoop=1;jettySize=auto;html=1;exitX=0.5;exitY=0;exitDx=0;exitDy=0;entryX=0.5;entryY=1;entryDx=0;entryDy=0;" edge="1" parent="1" source="I6P-6w5Jl3ohKBDjrvoA-3" target="I6P-6w5Jl3ohKBDjrvoA-4">
          <mxGeometry relative="1" as="geometry" />
        </mxCell>
        <mxCell id="I6P-6w5Jl3ohKBDjrvoA-3" value="ReLU" style="rounded=0;whiteSpace=wrap;html=1;" vertex="1" parent="1">
          <mxGeometry x="1401" y="3879" width="200" height="40" as="geometry" />
        </mxCell>
        <mxCell id="I6P-6w5Jl3ohKBDjrvoA-10" style="edgeStyle=orthogonalEdgeStyle;rounded=0;orthogonalLoop=1;jettySize=auto;html=1;exitX=0.5;exitY=0;exitDx=0;exitDy=0;entryX=0.5;entryY=1;entryDx=0;entryDy=0;" edge="1" parent="1" source="I6P-6w5Jl3ohKBDjrvoA-4" target="quXKRR0BP9QjiIbmumPN-25">
          <mxGeometry relative="1" as="geometry" />
        </mxCell>
        <mxCell id="I6P-6w5Jl3ohKBDjrvoA-4" value="BN(512)" style="rounded=0;whiteSpace=wrap;html=1;" vertex="1" parent="1">
          <mxGeometry x="1401" y="3799" width="200" height="40" as="geometry" />
        </mxCell>
        <mxCell id="I6P-6w5Jl3ohKBDjrvoA-15" style="edgeStyle=orthogonalEdgeStyle;rounded=0;orthogonalLoop=1;jettySize=auto;html=1;exitX=0.5;exitY=0;exitDx=0;exitDy=0;" edge="1" parent="1" source="I6P-6w5Jl3ohKBDjrvoA-16" target="I6P-6w5Jl3ohKBDjrvoA-21">
          <mxGeometry relative="1" as="geometry" />
        </mxCell>
        <mxCell id="I6P-6w5Jl3ohKBDjrvoA-16" value="conv(1024, 256)" style="rounded=0;whiteSpace=wrap;html=1;" vertex="1" parent="1">
          <mxGeometry x="1560" y="3319" width="200" height="40" as="geometry" />
        </mxCell>
        <mxCell id="I6P-6w5Jl3ohKBDjrvoA-17" style="edgeStyle=orthogonalEdgeStyle;rounded=0;orthogonalLoop=1;jettySize=auto;html=1;exitX=0.5;exitY=0;exitDx=0;exitDy=0;" edge="1" parent="1" source="I6P-6w5Jl3ohKBDjrvoA-18" target="I6P-6w5Jl3ohKBDjrvoA-25">
          <mxGeometry relative="1" as="geometry" />
        </mxCell>
        <mxCell id="I6P-6w5Jl3ohKBDjrvoA-18" value="ConvTranspose(256, 256)" style="rounded=0;whiteSpace=wrap;html=1;" vertex="1" parent="1">
          <mxGeometry x="1560" y="3079" width="200" height="40" as="geometry" />
        </mxCell>
        <mxCell id="I6P-6w5Jl3ohKBDjrvoA-44" style="edgeStyle=orthogonalEdgeStyle;rounded=0;orthogonalLoop=1;jettySize=auto;html=1;exitX=0.5;exitY=0;exitDx=0;exitDy=0;" edge="1" parent="1" source="I6P-6w5Jl3ohKBDjrvoA-84" target="I6P-6w5Jl3ohKBDjrvoA-32">
          <mxGeometry relative="1" as="geometry" />
        </mxCell>
        <mxCell id="I6P-6w5Jl3ohKBDjrvoA-19" value="conv(256, 256)" style="rounded=0;whiteSpace=wrap;html=1;" vertex="1" parent="1">
          <mxGeometry x="1560" y="2839" width="200" height="40" as="geometry" />
        </mxCell>
        <mxCell id="I6P-6w5Jl3ohKBDjrvoA-20" style="edgeStyle=orthogonalEdgeStyle;rounded=0;orthogonalLoop=1;jettySize=auto;html=1;exitX=0.5;exitY=0;exitDx=0;exitDy=0;entryX=0.5;entryY=1;entryDx=0;entryDy=0;" edge="1" parent="1" source="I6P-6w5Jl3ohKBDjrvoA-21" target="I6P-6w5Jl3ohKBDjrvoA-23">
          <mxGeometry relative="1" as="geometry" />
        </mxCell>
        <mxCell id="I6P-6w5Jl3ohKBDjrvoA-21" value="ReLU" style="rounded=0;whiteSpace=wrap;html=1;" vertex="1" parent="1">
          <mxGeometry x="1560" y="3239" width="200" height="40" as="geometry" />
        </mxCell>
        <mxCell id="I6P-6w5Jl3ohKBDjrvoA-22" style="edgeStyle=orthogonalEdgeStyle;rounded=0;orthogonalLoop=1;jettySize=auto;html=1;exitX=0.5;exitY=0;exitDx=0;exitDy=0;" edge="1" parent="1" source="I6P-6w5Jl3ohKBDjrvoA-23" target="I6P-6w5Jl3ohKBDjrvoA-18">
          <mxGeometry relative="1" as="geometry" />
        </mxCell>
        <mxCell id="I6P-6w5Jl3ohKBDjrvoA-23" value="BN(256)" style="rounded=0;whiteSpace=wrap;html=1;" vertex="1" parent="1">
          <mxGeometry x="1560" y="3159" width="200" height="40" as="geometry" />
        </mxCell>
        <mxCell id="I6P-6w5Jl3ohKBDjrvoA-24" style="edgeStyle=orthogonalEdgeStyle;rounded=0;orthogonalLoop=1;jettySize=auto;html=1;exitX=0.5;exitY=0;exitDx=0;exitDy=0;entryX=0.5;entryY=1;entryDx=0;entryDy=0;" edge="1" parent="1" source="I6P-6w5Jl3ohKBDjrvoA-25" target="I6P-6w5Jl3ohKBDjrvoA-27">
          <mxGeometry relative="1" as="geometry" />
        </mxCell>
        <mxCell id="I6P-6w5Jl3ohKBDjrvoA-25" value="ReLU" style="rounded=0;whiteSpace=wrap;html=1;" vertex="1" parent="1">
          <mxGeometry x="1560" y="2999" width="200" height="40" as="geometry" />
        </mxCell>
        <mxCell id="I6P-6w5Jl3ohKBDjrvoA-26" style="edgeStyle=orthogonalEdgeStyle;rounded=0;orthogonalLoop=1;jettySize=auto;html=1;exitX=0.5;exitY=0;exitDx=0;exitDy=0;entryX=0.5;entryY=1;entryDx=0;entryDy=0;" edge="1" parent="1" source="I6P-6w5Jl3ohKBDjrvoA-27" target="I6P-6w5Jl3ohKBDjrvoA-19">
          <mxGeometry relative="1" as="geometry" />
        </mxCell>
        <mxCell id="I6P-6w5Jl3ohKBDjrvoA-27" value="BN(256)" style="rounded=0;whiteSpace=wrap;html=1;" vertex="1" parent="1">
          <mxGeometry x="1560" y="2919" width="200" height="40" as="geometry" />
        </mxCell>
        <mxCell id="I6P-6w5Jl3ohKBDjrvoA-31" style="edgeStyle=orthogonalEdgeStyle;rounded=0;orthogonalLoop=1;jettySize=auto;html=1;exitX=0.5;exitY=0;exitDx=0;exitDy=0;" edge="1" parent="1" source="I6P-6w5Jl3ohKBDjrvoA-32" target="I6P-6w5Jl3ohKBDjrvoA-37">
          <mxGeometry relative="1" as="geometry" />
        </mxCell>
        <mxCell id="I6P-6w5Jl3ohKBDjrvoA-32" value="conv(512, 128)" style="rounded=0;whiteSpace=wrap;html=1;" vertex="1" parent="1">
          <mxGeometry x="1721" y="2439" width="200" height="40" as="geometry" />
        </mxCell>
        <mxCell id="I6P-6w5Jl3ohKBDjrvoA-33" style="edgeStyle=orthogonalEdgeStyle;rounded=0;orthogonalLoop=1;jettySize=auto;html=1;exitX=0.5;exitY=0;exitDx=0;exitDy=0;" edge="1" parent="1" source="I6P-6w5Jl3ohKBDjrvoA-34" target="I6P-6w5Jl3ohKBDjrvoA-41">
          <mxGeometry relative="1" as="geometry" />
        </mxCell>
        <mxCell id="I6P-6w5Jl3ohKBDjrvoA-34" value="ConvTranspose(128, 128)" style="rounded=0;whiteSpace=wrap;html=1;" vertex="1" parent="1">
          <mxGeometry x="1721" y="2199" width="200" height="40" as="geometry" />
        </mxCell>
        <mxCell id="I6P-6w5Jl3ohKBDjrvoA-35" value="conv(256, 256)" style="rounded=0;whiteSpace=wrap;html=1;" vertex="1" parent="1">
          <mxGeometry x="1720" y="1959" width="200" height="40" as="geometry" />
        </mxCell>
        <mxCell id="I6P-6w5Jl3ohKBDjrvoA-36" style="edgeStyle=orthogonalEdgeStyle;rounded=0;orthogonalLoop=1;jettySize=auto;html=1;exitX=0.5;exitY=0;exitDx=0;exitDy=0;entryX=0.5;entryY=1;entryDx=0;entryDy=0;" edge="1" parent="1" source="I6P-6w5Jl3ohKBDjrvoA-37" target="I6P-6w5Jl3ohKBDjrvoA-39">
          <mxGeometry relative="1" as="geometry" />
        </mxCell>
        <mxCell id="I6P-6w5Jl3ohKBDjrvoA-37" value="ReLU" style="rounded=0;whiteSpace=wrap;html=1;" vertex="1" parent="1">
          <mxGeometry x="1720" y="2359" width="200" height="40" as="geometry" />
        </mxCell>
        <mxCell id="I6P-6w5Jl3ohKBDjrvoA-38" style="edgeStyle=orthogonalEdgeStyle;rounded=0;orthogonalLoop=1;jettySize=auto;html=1;exitX=0.5;exitY=0;exitDx=0;exitDy=0;" edge="1" parent="1" source="I6P-6w5Jl3ohKBDjrvoA-39" target="I6P-6w5Jl3ohKBDjrvoA-34">
          <mxGeometry relative="1" as="geometry" />
        </mxCell>
        <mxCell id="I6P-6w5Jl3ohKBDjrvoA-39" value="BN(128)" style="rounded=0;whiteSpace=wrap;html=1;" vertex="1" parent="1">
          <mxGeometry x="1720" y="2279" width="200" height="40" as="geometry" />
        </mxCell>
        <mxCell id="I6P-6w5Jl3ohKBDjrvoA-40" style="edgeStyle=orthogonalEdgeStyle;rounded=0;orthogonalLoop=1;jettySize=auto;html=1;exitX=0.5;exitY=0;exitDx=0;exitDy=0;entryX=0.5;entryY=1;entryDx=0;entryDy=0;" edge="1" parent="1" source="I6P-6w5Jl3ohKBDjrvoA-41" target="I6P-6w5Jl3ohKBDjrvoA-43">
          <mxGeometry relative="1" as="geometry" />
        </mxCell>
        <mxCell id="I6P-6w5Jl3ohKBDjrvoA-41" value="ReLU" style="rounded=0;whiteSpace=wrap;html=1;" vertex="1" parent="1">
          <mxGeometry x="1720" y="2119" width="200" height="40" as="geometry" />
        </mxCell>
        <mxCell id="I6P-6w5Jl3ohKBDjrvoA-42" style="edgeStyle=orthogonalEdgeStyle;rounded=0;orthogonalLoop=1;jettySize=auto;html=1;exitX=0.5;exitY=0;exitDx=0;exitDy=0;entryX=0.5;entryY=1;entryDx=0;entryDy=0;" edge="1" parent="1" source="I6P-6w5Jl3ohKBDjrvoA-43" target="I6P-6w5Jl3ohKBDjrvoA-35">
          <mxGeometry relative="1" as="geometry" />
        </mxCell>
        <mxCell id="I6P-6w5Jl3ohKBDjrvoA-43" value="BN(128)" style="rounded=0;whiteSpace=wrap;html=1;" vertex="1" parent="1">
          <mxGeometry x="1720" y="2039" width="200" height="40" as="geometry" />
        </mxCell>
        <mxCell id="I6P-6w5Jl3ohKBDjrvoA-45" value="" style="rounded=1;whiteSpace=wrap;html=1;fillColor=#e1d5e7;strokeColor=#9673a6;" vertex="1" parent="1">
          <mxGeometry x="1841" y="1077.8000000000002" width="280" height="600" as="geometry" />
        </mxCell>
        <mxCell id="I6P-6w5Jl3ohKBDjrvoA-46" style="edgeStyle=orthogonalEdgeStyle;rounded=0;orthogonalLoop=1;jettySize=auto;html=1;exitX=0.5;exitY=0;exitDx=0;exitDy=0;" edge="1" parent="1" source="I6P-6w5Jl3ohKBDjrvoA-88" target="I6P-6w5Jl3ohKBDjrvoA-49">
          <mxGeometry relative="1" as="geometry" />
        </mxCell>
        <mxCell id="I6P-6w5Jl3ohKBDjrvoA-47" value="conv(128, 128)" style="rounded=0;whiteSpace=wrap;html=1;" vertex="1" parent="1">
          <mxGeometry x="1721" y="1959" width="200" height="40" as="geometry" />
        </mxCell>
        <mxCell id="I6P-6w5Jl3ohKBDjrvoA-48" style="edgeStyle=orthogonalEdgeStyle;rounded=0;orthogonalLoop=1;jettySize=auto;html=1;exitX=0.5;exitY=0;exitDx=0;exitDy=0;" edge="1" parent="1" source="I6P-6w5Jl3ohKBDjrvoA-49" target="I6P-6w5Jl3ohKBDjrvoA-54">
          <mxGeometry relative="1" as="geometry" />
        </mxCell>
        <mxCell id="I6P-6w5Jl3ohKBDjrvoA-49" value="conv(256, 64)" style="rounded=0;whiteSpace=wrap;html=1;" vertex="1" parent="1">
          <mxGeometry x="1882" y="1597.8000000000002" width="200" height="40" as="geometry" />
        </mxCell>
        <mxCell id="I6P-6w5Jl3ohKBDjrvoA-50" style="edgeStyle=orthogonalEdgeStyle;rounded=0;orthogonalLoop=1;jettySize=auto;html=1;exitX=0.5;exitY=0;exitDx=0;exitDy=0;" edge="1" parent="1" source="I6P-6w5Jl3ohKBDjrvoA-51" target="I6P-6w5Jl3ohKBDjrvoA-58">
          <mxGeometry relative="1" as="geometry" />
        </mxCell>
        <mxCell id="I6P-6w5Jl3ohKBDjrvoA-51" value="ConvTranspose(64, 64)" style="rounded=0;whiteSpace=wrap;html=1;" vertex="1" parent="1">
          <mxGeometry x="1882" y="1357.8000000000002" width="200" height="40" as="geometry" />
        </mxCell>
        <mxCell id="I6P-6w5Jl3ohKBDjrvoA-52" value="conv(64, 64)" style="rounded=0;whiteSpace=wrap;html=1;" vertex="1" parent="1">
          <mxGeometry x="1881" y="1117.8000000000002" width="200" height="40" as="geometry" />
        </mxCell>
        <mxCell id="I6P-6w5Jl3ohKBDjrvoA-53" style="edgeStyle=orthogonalEdgeStyle;rounded=0;orthogonalLoop=1;jettySize=auto;html=1;exitX=0.5;exitY=0;exitDx=0;exitDy=0;entryX=0.5;entryY=1;entryDx=0;entryDy=0;" edge="1" parent="1" source="I6P-6w5Jl3ohKBDjrvoA-54" target="I6P-6w5Jl3ohKBDjrvoA-56">
          <mxGeometry relative="1" as="geometry" />
        </mxCell>
        <mxCell id="I6P-6w5Jl3ohKBDjrvoA-54" value="ReLU" style="rounded=0;whiteSpace=wrap;html=1;" vertex="1" parent="1">
          <mxGeometry x="1881" y="1517.8000000000002" width="200" height="40" as="geometry" />
        </mxCell>
        <mxCell id="I6P-6w5Jl3ohKBDjrvoA-55" style="edgeStyle=orthogonalEdgeStyle;rounded=0;orthogonalLoop=1;jettySize=auto;html=1;exitX=0.5;exitY=0;exitDx=0;exitDy=0;" edge="1" parent="1" source="I6P-6w5Jl3ohKBDjrvoA-56" target="I6P-6w5Jl3ohKBDjrvoA-51">
          <mxGeometry relative="1" as="geometry" />
        </mxCell>
        <mxCell id="I6P-6w5Jl3ohKBDjrvoA-56" value="BN(64)" style="rounded=0;whiteSpace=wrap;html=1;" vertex="1" parent="1">
          <mxGeometry x="1881" y="1437.8000000000002" width="200" height="40" as="geometry" />
        </mxCell>
        <mxCell id="I6P-6w5Jl3ohKBDjrvoA-57" style="edgeStyle=orthogonalEdgeStyle;rounded=0;orthogonalLoop=1;jettySize=auto;html=1;exitX=0.5;exitY=0;exitDx=0;exitDy=0;entryX=0.5;entryY=1;entryDx=0;entryDy=0;" edge="1" parent="1" source="I6P-6w5Jl3ohKBDjrvoA-58" target="I6P-6w5Jl3ohKBDjrvoA-60">
          <mxGeometry relative="1" as="geometry" />
        </mxCell>
        <mxCell id="I6P-6w5Jl3ohKBDjrvoA-58" value="ReLU" style="rounded=0;whiteSpace=wrap;html=1;" vertex="1" parent="1">
          <mxGeometry x="1881" y="1277.8000000000002" width="200" height="40" as="geometry" />
        </mxCell>
        <mxCell id="I6P-6w5Jl3ohKBDjrvoA-59" style="edgeStyle=orthogonalEdgeStyle;rounded=0;orthogonalLoop=1;jettySize=auto;html=1;exitX=0.5;exitY=0;exitDx=0;exitDy=0;entryX=0.5;entryY=1;entryDx=0;entryDy=0;" edge="1" parent="1" source="I6P-6w5Jl3ohKBDjrvoA-60" target="I6P-6w5Jl3ohKBDjrvoA-52">
          <mxGeometry relative="1" as="geometry" />
        </mxCell>
        <mxCell id="I6P-6w5Jl3ohKBDjrvoA-60" value="BN(64)" style="rounded=0;whiteSpace=wrap;html=1;" vertex="1" parent="1">
          <mxGeometry x="1881" y="1197.8000000000002" width="200" height="40" as="geometry" />
        </mxCell>
        <mxCell id="I6P-6w5Jl3ohKBDjrvoA-63" value="" style="edgeStyle=orthogonalEdgeStyle;rounded=0;orthogonalLoop=1;jettySize=auto;html=1;exitX=0.5;exitY=1;exitDx=0;exitDy=0;" edge="1" parent="1" source="quXKRR0BP9QjiIbmumPN-62" target="I6P-6w5Jl3ohKBDjrvoA-61">
          <mxGeometry relative="1" as="geometry">
            <mxPoint x="740" y="2479" as="sourcePoint" />
            <mxPoint x="900" y="2839" as="targetPoint" />
          </mxGeometry>
        </mxCell>
        <mxCell id="I6P-6w5Jl3ohKBDjrvoA-87" style="edgeStyle=orthogonalEdgeStyle;rounded=0;orthogonalLoop=1;jettySize=auto;html=1;exitX=1;exitY=0.5;exitDx=0;exitDy=0;entryX=0;entryY=0.5;entryDx=0;entryDy=0;fillColor=#f8cecc;strokeColor=#b85450;strokeWidth=3;" edge="1" parent="1" source="I6P-6w5Jl3ohKBDjrvoA-61" target="I6P-6w5Jl3ohKBDjrvoA-84">
          <mxGeometry relative="1" as="geometry" />
        </mxCell>
        <mxCell id="I6P-6w5Jl3ohKBDjrvoA-61" value="x2" style="rounded=0;whiteSpace=wrap;html=1;" vertex="1" parent="1">
          <mxGeometry x="640" y="2559" width="200" height="40" as="geometry" />
        </mxCell>
        <mxCell id="I6P-6w5Jl3ohKBDjrvoA-65" value="" style="edgeStyle=orthogonalEdgeStyle;rounded=0;orthogonalLoop=1;jettySize=auto;html=1;exitX=0.5;exitY=1;exitDx=0;exitDy=0;" edge="1" parent="1" source="quXKRR0BP9QjiIbmumPN-9" target="I6P-6w5Jl3ohKBDjrvoA-64">
          <mxGeometry relative="1" as="geometry">
            <mxPoint x="580" y="1639" as="sourcePoint" />
            <mxPoint x="740" y="1959" as="targetPoint" />
          </mxGeometry>
        </mxCell>
        <mxCell id="I6P-6w5Jl3ohKBDjrvoA-90" style="edgeStyle=orthogonalEdgeStyle;rounded=0;orthogonalLoop=1;jettySize=auto;html=1;exitX=1;exitY=0.5;exitDx=0;exitDy=0;fillColor=#f8cecc;strokeColor=#b85450;strokeWidth=3;" edge="1" parent="1" source="I6P-6w5Jl3ohKBDjrvoA-64" target="I6P-6w5Jl3ohKBDjrvoA-88">
          <mxGeometry relative="1" as="geometry" />
        </mxCell>
        <mxCell id="I6P-6w5Jl3ohKBDjrvoA-64" value="x1" style="rounded=0;whiteSpace=wrap;html=1;" vertex="1" parent="1">
          <mxGeometry x="480" y="1719" width="200" height="40" as="geometry" />
        </mxCell>
        <mxCell id="I6P-6w5Jl3ohKBDjrvoA-68" value="" style="edgeStyle=orthogonalEdgeStyle;rounded=0;orthogonalLoop=1;jettySize=auto;html=1;exitX=0.5;exitY=1;exitDx=0;exitDy=0;entryX=0.5;entryY=0;entryDx=0;entryDy=0;" edge="1" parent="1" source="quXKRR0BP9QjiIbmumPN-80" target="I6P-6w5Jl3ohKBDjrvoA-66">
          <mxGeometry relative="1" as="geometry">
            <mxPoint x="900" y="3359" as="sourcePoint" />
            <mxPoint x="1062" y="3719" as="targetPoint" />
          </mxGeometry>
        </mxCell>
        <mxCell id="I6P-6w5Jl3ohKBDjrvoA-79" style="edgeStyle=orthogonalEdgeStyle;rounded=0;orthogonalLoop=1;jettySize=auto;html=1;exitX=1;exitY=0.5;exitDx=0;exitDy=0;entryX=0;entryY=0.5;entryDx=0;entryDy=0;fillColor=#f8cecc;strokeColor=#b85450;strokeWidth=3;" edge="1" parent="1" source="I6P-6w5Jl3ohKBDjrvoA-66" target="I6P-6w5Jl3ohKBDjrvoA-78">
          <mxGeometry relative="1" as="geometry" />
        </mxCell>
        <mxCell id="I6P-6w5Jl3ohKBDjrvoA-66" value="x3" style="rounded=0;whiteSpace=wrap;html=1;" vertex="1" parent="1">
          <mxGeometry x="800" y="3439" width="200" height="40" as="geometry" />
        </mxCell>
        <mxCell id="I6P-6w5Jl3ohKBDjrvoA-70" value="x4" style="rounded=0;whiteSpace=wrap;html=1;" vertex="1" parent="1">
          <mxGeometry x="960" y="4439" width="200" height="40" as="geometry" />
        </mxCell>
        <mxCell id="I6P-6w5Jl3ohKBDjrvoA-81" style="edgeStyle=orthogonalEdgeStyle;rounded=0;orthogonalLoop=1;jettySize=auto;html=1;exitX=0.5;exitY=0;exitDx=0;exitDy=0;" edge="1" parent="1" source="I6P-6w5Jl3ohKBDjrvoA-78" target="I6P-6w5Jl3ohKBDjrvoA-14">
          <mxGeometry relative="1" as="geometry" />
        </mxCell>
        <mxCell id="I6P-6w5Jl3ohKBDjrvoA-78" value="cat" style="rounded=0;whiteSpace=wrap;html=1;" vertex="1" parent="1">
          <mxGeometry x="1560" y="3439" width="200" height="40" as="geometry" />
        </mxCell>
        <mxCell id="I6P-6w5Jl3ohKBDjrvoA-85" value="" style="edgeStyle=orthogonalEdgeStyle;rounded=0;orthogonalLoop=1;jettySize=auto;html=1;exitX=0.5;exitY=0;exitDx=0;exitDy=0;" edge="1" parent="1" source="I6P-6w5Jl3ohKBDjrvoA-19" target="I6P-6w5Jl3ohKBDjrvoA-84">
          <mxGeometry relative="1" as="geometry">
            <mxPoint x="1660" y="2839" as="sourcePoint" />
            <mxPoint x="1821" y="2479" as="targetPoint" />
          </mxGeometry>
        </mxCell>
        <mxCell id="I6P-6w5Jl3ohKBDjrvoA-84" value="cat" style="rounded=0;whiteSpace=wrap;html=1;" vertex="1" parent="1">
          <mxGeometry x="1721" y="2559" width="200" height="40" as="geometry" />
        </mxCell>
        <mxCell id="I6P-6w5Jl3ohKBDjrvoA-89" value="" style="edgeStyle=orthogonalEdgeStyle;rounded=0;orthogonalLoop=1;jettySize=auto;html=1;exitX=0.5;exitY=0;exitDx=0;exitDy=0;" edge="1" parent="1" source="I6P-6w5Jl3ohKBDjrvoA-47" target="I6P-6w5Jl3ohKBDjrvoA-88">
          <mxGeometry relative="1" as="geometry">
            <mxPoint x="1821" y="1959" as="sourcePoint" />
            <mxPoint x="1982" y="1638" as="targetPoint" />
          </mxGeometry>
        </mxCell>
        <mxCell id="I6P-6w5Jl3ohKBDjrvoA-88" value="cat" style="rounded=0;whiteSpace=wrap;html=1;" vertex="1" parent="1">
          <mxGeometry x="1881" y="1719" width="200" height="40" as="geometry" />
        </mxCell>
        <mxCell id="I6P-6w5Jl3ohKBDjrvoA-93" value="x4" style="rounded=0;whiteSpace=wrap;html=1;" vertex="1" parent="1">
          <mxGeometry x="1401" y="4439" width="200" height="40" as="geometry" />
        </mxCell>
        <mxCell id="I6P-6w5Jl3ohKBDjrvoA-95" style="edgeStyle=orthogonalEdgeStyle;rounded=0;orthogonalLoop=1;jettySize=auto;html=1;exitX=0.5;exitY=0;exitDx=0;exitDy=0;" edge="1" parent="1" source="I6P-6w5Jl3ohKBDjrvoA-94" target="quXKRR0BP9QjiIbmumPN-23">
          <mxGeometry relative="1" as="geometry" />
        </mxCell>
        <mxCell id="I6P-6w5Jl3ohKBDjrvoA-94" value="x4" style="rounded=0;whiteSpace=wrap;html=1;" vertex="1" parent="1">
          <mxGeometry x="1401" y="4399" width="200" height="40" as="geometry" />
        </mxCell>
        <mxCell id="I6P-6w5Jl3ohKBDjrvoA-97" style="edgeStyle=orthogonalEdgeStyle;rounded=0;orthogonalLoop=1;jettySize=auto;html=1;exitX=0.5;exitY=0;exitDx=0;exitDy=0;entryX=0.5;entryY=1;entryDx=0;entryDy=0;" edge="1" parent="1" source="I6P-6w5Jl3ohKBDjrvoA-96" target="quXKRR0BP9QjiIbmumPN-169">
          <mxGeometry relative="1" as="geometry" />
        </mxCell>
        <mxCell id="I6P-6w5Jl3ohKBDjrvoA-96" value="t" style="rounded=0;whiteSpace=wrap;html=1;" vertex="1" parent="1">
          <mxGeometry x="2160" y="4119" width="200" height="40" as="geometry" />
        </mxCell>
        <mxCell id="I6P-6w5Jl3ohKBDjrvoA-103" style="edgeStyle=orthogonalEdgeStyle;rounded=0;orthogonalLoop=1;jettySize=auto;html=1;exitX=0.5;exitY=0;exitDx=0;exitDy=0;entryX=0.5;entryY=1;entryDx=0;entryDy=0;" edge="1" parent="1" source="I6P-6w5Jl3ohKBDjrvoA-100" target="I6P-6w5Jl3ohKBDjrvoA-18">
          <mxGeometry relative="1" as="geometry" />
        </mxCell>
        <mxCell id="I6P-6w5Jl3ohKBDjrvoA-100" value="Linear(32, 256)" style="rounded=0;whiteSpace=wrap;html=1;" vertex="1" parent="1">
          <mxGeometry x="2160" y="3159" width="200" height="40" as="geometry" />
        </mxCell>
        <mxCell id="I6P-6w5Jl3ohKBDjrvoA-101" style="edgeStyle=orthogonalEdgeStyle;rounded=0;orthogonalLoop=1;jettySize=auto;html=1;exitX=0.5;exitY=0;exitDx=0;exitDy=0;entryX=0.5;entryY=1;entryDx=0;entryDy=0;" edge="1" parent="1" source="I6P-6w5Jl3ohKBDjrvoA-102" target="I6P-6w5Jl3ohKBDjrvoA-100">
          <mxGeometry relative="1" as="geometry" />
        </mxCell>
        <mxCell id="I6P-6w5Jl3ohKBDjrvoA-102" value="t" style="rounded=0;whiteSpace=wrap;html=1;" vertex="1" parent="1">
          <mxGeometry x="2160" y="3239" width="200" height="40" as="geometry" />
        </mxCell>
        <mxCell id="I6P-6w5Jl3ohKBDjrvoA-107" style="edgeStyle=orthogonalEdgeStyle;rounded=0;orthogonalLoop=1;jettySize=auto;html=1;exitX=0.5;exitY=0;exitDx=0;exitDy=0;entryX=0.5;entryY=1;entryDx=0;entryDy=0;" edge="1" parent="1" source="I6P-6w5Jl3ohKBDjrvoA-104" target="I6P-6w5Jl3ohKBDjrvoA-34">
          <mxGeometry relative="1" as="geometry" />
        </mxCell>
        <mxCell id="I6P-6w5Jl3ohKBDjrvoA-104" value="Linear(32, 256)" style="rounded=0;whiteSpace=wrap;html=1;" vertex="1" parent="1">
          <mxGeometry x="2160" y="2278.6" width="200" height="40" as="geometry" />
        </mxCell>
        <mxCell id="I6P-6w5Jl3ohKBDjrvoA-105" style="edgeStyle=orthogonalEdgeStyle;rounded=0;orthogonalLoop=1;jettySize=auto;html=1;exitX=0.5;exitY=0;exitDx=0;exitDy=0;entryX=0.5;entryY=1;entryDx=0;entryDy=0;" edge="1" parent="1" source="I6P-6w5Jl3ohKBDjrvoA-106" target="I6P-6w5Jl3ohKBDjrvoA-104">
          <mxGeometry relative="1" as="geometry" />
        </mxCell>
        <mxCell id="I6P-6w5Jl3ohKBDjrvoA-106" value="t" style="rounded=0;whiteSpace=wrap;html=1;" vertex="1" parent="1">
          <mxGeometry x="2160" y="2358.6" width="200" height="40" as="geometry" />
        </mxCell>
        <mxCell id="I6P-6w5Jl3ohKBDjrvoA-114" style="edgeStyle=orthogonalEdgeStyle;rounded=0;orthogonalLoop=1;jettySize=auto;html=1;exitX=0.5;exitY=0;exitDx=0;exitDy=0;entryX=0.5;entryY=1;entryDx=0;entryDy=0;" edge="1" parent="1" source="I6P-6w5Jl3ohKBDjrvoA-111" target="I6P-6w5Jl3ohKBDjrvoA-51">
          <mxGeometry relative="1" as="geometry" />
        </mxCell>
        <mxCell id="I6P-6w5Jl3ohKBDjrvoA-111" value="Linear(32, 256)" style="rounded=0;whiteSpace=wrap;html=1;" vertex="1" parent="1">
          <mxGeometry x="2160" y="1439" width="200" height="40" as="geometry" />
        </mxCell>
        <mxCell id="I6P-6w5Jl3ohKBDjrvoA-112" style="edgeStyle=orthogonalEdgeStyle;rounded=0;orthogonalLoop=1;jettySize=auto;html=1;exitX=0.5;exitY=0;exitDx=0;exitDy=0;entryX=0.5;entryY=1;entryDx=0;entryDy=0;" edge="1" parent="1" source="I6P-6w5Jl3ohKBDjrvoA-113" target="I6P-6w5Jl3ohKBDjrvoA-111">
          <mxGeometry relative="1" as="geometry" />
        </mxCell>
        <mxCell id="I6P-6w5Jl3ohKBDjrvoA-113" value="t" style="rounded=0;whiteSpace=wrap;html=1;" vertex="1" parent="1">
          <mxGeometry x="2160" y="1519" width="200" height="40" as="geometry" />
        </mxCell>
        <mxCell id="I6P-6w5Jl3ohKBDjrvoA-124" style="edgeStyle=orthogonalEdgeStyle;rounded=0;orthogonalLoop=1;jettySize=auto;html=1;exitX=1;exitY=0.5;exitDx=0;exitDy=0;entryX=0;entryY=0.75;entryDx=0;entryDy=0;" edge="1" parent="1" source="I6P-6w5Jl3ohKBDjrvoA-116" target="I6P-6w5Jl3ohKBDjrvoA-118">
          <mxGeometry relative="1" as="geometry" />
        </mxCell>
        <mxCell id="I6P-6w5Jl3ohKBDjrvoA-116" value="conv(3, 64)" style="rounded=0;whiteSpace=wrap;html=1;" vertex="1" parent="1">
          <mxGeometry x="1160" y="799" width="200" height="40" as="geometry" />
        </mxCell>
        <mxCell id="I6P-6w5Jl3ohKBDjrvoA-131" style="edgeStyle=orthogonalEdgeStyle;rounded=0;orthogonalLoop=1;jettySize=auto;html=1;exitX=1;exitY=0.5;exitDx=0;exitDy=0;" edge="1" parent="1" source="I6P-6w5Jl3ohKBDjrvoA-118" target="I6P-6w5Jl3ohKBDjrvoA-130">
          <mxGeometry relative="1" as="geometry" />
        </mxCell>
        <mxCell id="I6P-6w5Jl3ohKBDjrvoA-118" value="&lt;font style=&quot;font-size: 18px;&quot;&gt;Unet&lt;/font&gt;" style="rounded=1;whiteSpace=wrap;html=1;fillColor=#f8cecc;strokeColor=#b85450;" vertex="1" parent="1">
          <mxGeometry x="1439" y="599" width="161" height="120" as="geometry" />
        </mxCell>
        <mxCell id="I6P-6w5Jl3ohKBDjrvoA-123" style="edgeStyle=orthogonalEdgeStyle;rounded=0;orthogonalLoop=1;jettySize=auto;html=1;exitX=1;exitY=0.5;exitDx=0;exitDy=0;" edge="1" parent="1" source="I6P-6w5Jl3ohKBDjrvoA-121" target="I6P-6w5Jl3ohKBDjrvoA-118">
          <mxGeometry relative="1" as="geometry" />
        </mxCell>
        <mxCell id="I6P-6w5Jl3ohKBDjrvoA-121" value="t" style="rounded=0;whiteSpace=wrap;html=1;" vertex="1" parent="1">
          <mxGeometry x="1160" y="639" width="200" height="40" as="geometry" />
        </mxCell>
        <mxCell id="I6P-6w5Jl3ohKBDjrvoA-128" style="edgeStyle=orthogonalEdgeStyle;rounded=0;orthogonalLoop=1;jettySize=auto;html=1;exitX=1;exitY=0.5;exitDx=0;exitDy=0;entryX=0;entryY=0.5;entryDx=0;entryDy=0;" edge="1" parent="1" source="I6P-6w5Jl3ohKBDjrvoA-125" target="quXKRR0BP9QjiIbmumPN-39">
          <mxGeometry relative="1" as="geometry" />
        </mxCell>
        <mxCell id="I6P-6w5Jl3ohKBDjrvoA-141" style="edgeStyle=orthogonalEdgeStyle;rounded=0;orthogonalLoop=1;jettySize=auto;html=1;exitX=1;exitY=0.75;exitDx=0;exitDy=0;entryX=0;entryY=0.25;entryDx=0;entryDy=0;" edge="1" parent="1" source="I6P-6w5Jl3ohKBDjrvoA-125" target="I6P-6w5Jl3ohKBDjrvoA-134">
          <mxGeometry relative="1" as="geometry" />
        </mxCell>
        <mxCell id="I6P-6w5Jl3ohKBDjrvoA-125" value="Timestep" style="rounded=0;whiteSpace=wrap;html=1;" vertex="1" parent="1">
          <mxGeometry x="80" y="639" width="160" height="40" as="geometry" />
        </mxCell>
        <mxCell id="I6P-6w5Jl3ohKBDjrvoA-126" style="edgeStyle=orthogonalEdgeStyle;rounded=0;orthogonalLoop=1;jettySize=auto;html=1;exitX=0.5;exitY=1;exitDx=0;exitDy=0;" edge="1" parent="1" source="I6P-6w5Jl3ohKBDjrvoA-125" target="I6P-6w5Jl3ohKBDjrvoA-125">
          <mxGeometry relative="1" as="geometry" />
        </mxCell>
        <mxCell id="I6P-6w5Jl3ohKBDjrvoA-129" style="edgeStyle=orthogonalEdgeStyle;rounded=0;orthogonalLoop=1;jettySize=auto;html=1;exitX=1;exitY=0.5;exitDx=0;exitDy=0;" edge="1" parent="1" source="I6P-6w5Jl3ohKBDjrvoA-127" target="I6P-6w5Jl3ohKBDjrvoA-116">
          <mxGeometry relative="1" as="geometry" />
        </mxCell>
        <mxCell id="I6P-6w5Jl3ohKBDjrvoA-127" value="noisy image" style="rounded=0;whiteSpace=wrap;html=1;" vertex="1" parent="1">
          <mxGeometry x="520" y="799" width="160" height="40" as="geometry" />
        </mxCell>
        <mxCell id="I6P-6w5Jl3ohKBDjrvoA-133" style="edgeStyle=orthogonalEdgeStyle;rounded=0;orthogonalLoop=1;jettySize=auto;html=1;exitX=1;exitY=0.5;exitDx=0;exitDy=0;entryX=0;entryY=0.5;entryDx=0;entryDy=0;" edge="1" parent="1" source="I6P-6w5Jl3ohKBDjrvoA-130" target="I6P-6w5Jl3ohKBDjrvoA-132">
          <mxGeometry relative="1" as="geometry" />
        </mxCell>
        <mxCell id="I6P-6w5Jl3ohKBDjrvoA-130" value="conv(64, 3)" style="rounded=0;whiteSpace=wrap;html=1;" vertex="1" parent="1">
          <mxGeometry x="1680" y="639" width="160" height="40" as="geometry" />
        </mxCell>
        <mxCell id="I6P-6w5Jl3ohKBDjrvoA-144" style="edgeStyle=orthogonalEdgeStyle;rounded=0;orthogonalLoop=1;jettySize=auto;html=1;exitX=1;exitY=0.5;exitDx=0;exitDy=0;entryX=0;entryY=0.5;entryDx=0;entryDy=0;" edge="1" parent="1" source="I6P-6w5Jl3ohKBDjrvoA-132" target="I6P-6w5Jl3ohKBDjrvoA-143">
          <mxGeometry relative="1" as="geometry" />
        </mxCell>
        <mxCell id="I6P-6w5Jl3ohKBDjrvoA-132" value="noise_pred" style="rounded=0;whiteSpace=wrap;html=1;" vertex="1" parent="1">
          <mxGeometry x="1920" y="639" width="160" height="40" as="geometry" />
        </mxCell>
        <mxCell id="I6P-6w5Jl3ohKBDjrvoA-137" style="edgeStyle=orthogonalEdgeStyle;rounded=0;orthogonalLoop=1;jettySize=auto;html=1;exitX=1;exitY=0.5;exitDx=0;exitDy=0;" edge="1" parent="1" source="I6P-6w5Jl3ohKBDjrvoA-134" target="I6P-6w5Jl3ohKBDjrvoA-127">
          <mxGeometry relative="1" as="geometry" />
        </mxCell>
        <mxCell id="I6P-6w5Jl3ohKBDjrvoA-139" style="edgeStyle=orthogonalEdgeStyle;rounded=0;orthogonalLoop=1;jettySize=auto;html=1;exitX=1;exitY=0.75;exitDx=0;exitDy=0;entryX=0;entryY=0.5;entryDx=0;entryDy=0;" edge="1" parent="1" source="I6P-6w5Jl3ohKBDjrvoA-134" target="I6P-6w5Jl3ohKBDjrvoA-138">
          <mxGeometry relative="1" as="geometry" />
        </mxCell>
        <mxCell id="I6P-6w5Jl3ohKBDjrvoA-134" value="Noise Schedule" style="rounded=0;whiteSpace=wrap;html=1;" vertex="1" parent="1">
          <mxGeometry x="320" y="759" width="120" height="120" as="geometry" />
        </mxCell>
        <mxCell id="I6P-6w5Jl3ohKBDjrvoA-136" style="edgeStyle=orthogonalEdgeStyle;rounded=0;orthogonalLoop=1;jettySize=auto;html=1;exitX=1;exitY=0.5;exitDx=0;exitDy=0;" edge="1" parent="1" source="I6P-6w5Jl3ohKBDjrvoA-135" target="I6P-6w5Jl3ohKBDjrvoA-134">
          <mxGeometry relative="1" as="geometry" />
        </mxCell>
        <mxCell id="I6P-6w5Jl3ohKBDjrvoA-135" value="image" style="rounded=0;whiteSpace=wrap;html=1;" vertex="1" parent="1">
          <mxGeometry x="80" y="799" width="160" height="40" as="geometry" />
        </mxCell>
        <mxCell id="I6P-6w5Jl3ohKBDjrvoA-142" style="edgeStyle=orthogonalEdgeStyle;rounded=0;orthogonalLoop=1;jettySize=auto;html=1;exitX=1;exitY=0.5;exitDx=0;exitDy=0;entryX=0;entryY=0.75;entryDx=0;entryDy=0;" edge="1" parent="1" source="I6P-6w5Jl3ohKBDjrvoA-138" target="I6P-6w5Jl3ohKBDjrvoA-143">
          <mxGeometry relative="1" as="geometry">
            <mxPoint x="2228.4615384615386" y="929" as="targetPoint" />
            <Array as="points">
              <mxPoint x="2120" y="939" />
              <mxPoint x="2120" y="804" />
            </Array>
          </mxGeometry>
        </mxCell>
        <mxCell id="I6P-6w5Jl3ohKBDjrvoA-138" value="noise" style="rounded=0;whiteSpace=wrap;html=1;" vertex="1" parent="1">
          <mxGeometry x="520" y="919" width="160" height="40" as="geometry" />
        </mxCell>
        <mxCell id="I6P-6w5Jl3ohKBDjrvoA-143" value="l1_loss" style="rounded=0;whiteSpace=wrap;html=1;" vertex="1" parent="1">
          <mxGeometry x="2160" y="759" width="120" height="60" as="geometry" />
        </mxCell>
      </root>
    </mxGraphModel>
  </diagram>
</mxfile>
